<svg width="140" height="140" viewBox="0 0 140 140" fill="none" xmlns="http://www.w3.org/2000/svg">
<path d="M130 0C135.523 1.93277e-06 140 4.47715 140 10V130C140 135.523 135.523 140 130 140H10C4.47715 140 2.41604e-07 135.523 0 130V10C1.93283e-06 4.47715 4.47715 2.41597e-07 10 0H130ZM32 20V120H52.7705C52.3363 118.991 52.31 117.787 52.9209 116.611L56.9775 108.803C57.7944 107.23 57.479 105.308 56.2031 104.078L49.8672 97.9727C47.0383 95.2464 49.4243 90.5014 53.2998 91.1465L61.9795 92.5918C63.7273 92.8827 65.4583 91.9889 66.2334 90.3955L70.082 82.4834C71.8006 78.9503 77.0508 79.7534 77.6348 83.6387L78.9424 92.3398C79.2059 94.0919 80.5909 95.4623 82.3457 95.707L91.0605 96.9219C94.9517 97.4646 95.8104 102.706 92.2959 104.462L84.4248 108.395C82.8397 109.186 81.9639 110.927 82.2734 112.672L83.5732 120H104V90C104 73.4315 90.5685 60 74 60C66.316 60 59.3077 62.8898 54 67.6406V20H32ZM70.8496 118.569C69.6067 117.307 67.6808 117.012 66.1172 117.846L62.0752 120H72.2578L70.8496 118.569Z" fill="white"/>
</svg>
