<svg width="171" height="173" viewBox="0 0 171 173" fill="none" xmlns="http://www.w3.org/2000/svg">
<path d="M89.5344 4.54687C93.3138 -2.2189 103.543 -0.195756 104.462 7.49932L110.203 55.5537C110.614 58.9951 113.194 61.7803 116.594 62.4528L164.07 71.8428C171.673 73.3464 172.91 83.7001 165.875 86.9523L121.947 107.261C118.801 108.716 116.949 112.031 117.361 115.472L123.101 163.526C124.02 171.221 114.556 175.597 109.289 169.912L76.399 134.409C74.0436 131.867 70.319 131.13 67.1732 132.585L23.2446 152.894C16.2103 156.146 9.1239 148.497 12.9033 141.731L36.5047 99.48C38.1949 96.4542 37.7445 92.6843 35.3892 90.1418L2.49933 54.6392C-2.76741 48.9541 2.31768 39.8508 9.9202 41.3545L57.3966 50.7445C60.7965 51.4169 64.2428 49.8236 65.933 46.7979L89.5344 4.54687Z" fill="white"/>
</svg>
