<svg width="72" height="100" viewBox="0 0 72 100" fill="none" xmlns="http://www.w3.org/2000/svg">
<path d="M22 47.6406C27.3077 42.8898 34.3161 40 42 40C58.5685 40 72 53.4315 72 70V100H51.5732L50.2734 92.6719C49.9639 90.9272 50.8397 89.1865 52.4248 88.3945L60.2959 84.4619C63.8104 82.7058 62.9517 77.4646 59.0605 76.9219L50.3457 75.707C48.5909 75.4623 47.2059 74.0919 46.9424 72.3398L45.6348 63.6387C45.0508 59.7534 39.8006 58.9503 38.082 62.4834L34.2334 70.3955C33.4583 71.9889 31.7273 72.8827 29.9795 72.5918L21.2998 71.1465C17.4243 70.5014 15.0383 75.2464 17.8672 77.9727L24.2031 84.0781C25.479 85.3076 25.7944 87.2304 24.9775 88.8027L20.9209 96.6113C20.31 97.7874 20.3363 98.9912 20.7705 100H0V0H22V47.6406ZM34.1172 97.8457C35.6808 97.0123 37.6067 97.3066 38.8496 98.5693L40.2578 100H30.0752L34.1172 97.8457Z" fill="black"/>
</svg>
